<svg width="138" height="42" viewBox="0 0 138 42" fill="none" xmlns="http://www.w3.org/2000/svg">
<path d="M17.375 4.75H9.875C8.83947 4.75 8 5.58947 8 6.625V35.375C8 36.4105 8.83947 37.25 9.875 37.25H31.125C32.1605 37.25 33 36.4105 33 35.375V20.375M17.375 4.75H18C26.2843 4.75 33 11.4657 33 19.75V20.375M17.375 4.75C20.4816 4.75 23 7.2684 23 10.375V12.875C23 13.9105 23.8395 14.75 24.875 14.75H27.375C30.4816 14.75 33 17.2684 33 20.375M15.5 26L19.25 29.75L25.5 21" stroke="#2B1887" stroke-width="2.5" stroke-linecap="round" stroke-linejoin="round"/>
<path d="M58.676 32V9.6H66.324C68.948 9.6 71.1027 10.0693 72.788 11.008C74.4947 11.9253 75.7533 13.2267 76.564 14.912C77.396 16.576 77.812 18.5387 77.812 20.8C77.812 23.0613 77.396 25.0347 76.564 26.72C75.7533 28.384 74.4947 29.6853 72.788 30.624C71.1027 31.5413 68.948 32 66.324 32H58.676ZM62.772 28.48H66.132C68.0093 28.48 69.492 28.1813 70.58 27.584C71.668 26.9653 72.4467 26.0907 72.916 24.96C73.3853 23.808 73.62 22.4213 73.62 20.8C73.62 19.2 73.3853 17.824 72.916 16.672C72.4467 15.52 71.668 14.6347 70.58 14.016C69.492 13.3973 68.0093 13.088 66.132 13.088H62.772V28.48ZM88.946 32.384C87.41 32.384 86.0233 32.032 84.786 31.328C83.57 30.624 82.5993 29.6533 81.874 28.416C81.17 27.1573 80.818 25.7067 80.818 24.064C80.818 22.4213 81.1807 20.9813 81.906 19.744C82.6313 18.4853 83.602 17.504 84.818 16.8C86.0553 16.096 87.442 15.744 88.978 15.744C90.4927 15.744 91.858 16.096 93.074 16.8C94.3113 17.504 95.282 18.4853 95.986 19.744C96.7113 20.9813 97.074 22.4213 97.074 24.064C97.074 25.7067 96.7113 27.1573 95.986 28.416C95.282 29.6533 94.3113 30.624 93.074 31.328C91.8367 32.032 90.4607 32.384 88.946 32.384ZM88.946 28.832C90.0127 28.832 90.9407 28.4373 91.73 27.648C92.5193 26.8373 92.914 25.6427 92.914 24.064C92.914 22.4853 92.5193 21.3013 91.73 20.512C90.9407 19.7013 90.0233 19.296 88.978 19.296C87.89 19.296 86.9513 19.7013 86.162 20.512C85.394 21.3013 85.01 22.4853 85.01 24.064C85.01 25.6427 85.394 26.8373 86.162 27.648C86.9513 28.4373 87.8793 28.832 88.946 28.832ZM100.736 32V16.128H104.352L104.672 18.816C105.163 17.8773 105.867 17.1307 106.784 16.576C107.723 16.0213 108.822 15.744 110.08 15.744C112.043 15.744 113.568 16.3627 114.656 17.6C115.744 18.8373 116.288 20.6507 116.288 23.04V32H112.192V23.424C112.192 22.0587 111.915 21.0133 111.36 20.288C110.806 19.5627 109.942 19.2 108.768 19.2C107.616 19.2 106.667 19.6053 105.92 20.416C105.195 21.2267 104.832 22.3573 104.832 23.808V32H100.736ZM127.917 32.384C126.317 32.384 124.898 32.0427 123.661 31.36C122.424 30.6773 121.453 29.7173 120.749 28.48C120.045 27.2427 119.693 25.8133 119.693 24.192C119.693 22.5493 120.034 21.088 120.717 19.808C121.421 18.528 122.381 17.536 123.597 16.832C124.834 16.1067 126.285 15.744 127.949 15.744C129.506 15.744 130.882 16.0853 132.077 16.768C133.272 17.4507 134.2 18.3893 134.861 19.584C135.544 20.7573 135.885 22.0693 135.885 23.52C135.885 23.7547 135.874 24 135.853 24.256C135.853 24.512 135.842 24.7787 135.821 25.056H123.757C123.842 26.2933 124.269 27.264 125.037 27.968C125.826 28.672 126.776 29.024 127.885 29.024C128.717 29.024 129.41 28.8427 129.965 28.48C130.541 28.096 130.968 27.6053 131.245 27.008H135.405C135.106 28.0107 134.605 28.928 133.901 29.76C133.218 30.5707 132.365 31.2107 131.341 31.68C130.338 32.1493 129.197 32.384 127.917 32.384ZM127.949 19.072C126.946 19.072 126.061 19.36 125.293 19.936C124.525 20.4907 124.034 21.344 123.821 22.496H131.725C131.661 21.4507 131.277 20.6187 130.573 20C129.869 19.3813 128.994 19.072 127.949 19.072Z" fill="#2B1887"/>
</svg>
