<svg width="151" height="42" viewBox="0 0 151 42" fill="none" xmlns="http://www.w3.org/2000/svg">
<path d="M26.1096 7.47981C25.6652 5.90453 24.2174 4.75 22.5 4.75H17.5C15.7826 4.75 14.3348 5.90453 13.8904 7.47981M26.1096 7.47981C26.2011 7.80417 26.25 8.14637 26.25 8.5V8.5C26.25 9.19036 25.6904 9.75 25 9.75H15C14.3096 9.75 13.75 9.19036 13.75 8.5V8.5C13.75 8.14637 13.7989 7.80417 13.8904 7.47981M26.1096 7.47981C27.1865 7.56114 28.2576 7.66379 29.3222 7.78735C31.1565 8.00023 32.5 9.58167 32.5 11.4283V33.5C32.5 35.5711 30.8211 37.25 28.75 37.25H11.25C9.17893 37.25 7.5 35.5711 7.5 33.5V11.4283C7.5 9.58167 8.84347 8.00023 10.6778 7.78735C11.7424 7.66379 12.8135 7.56114 13.8904 7.47981" stroke="#2B1887" stroke-width="2.5" stroke-linecap="round" stroke-linejoin="round"/>
<path d="M63.392 32V12.896H56.864V9.6H74.048V12.896H67.488V32H63.392ZM81.7273 32.384C80.1913 32.384 78.8046 32.032 77.5673 31.328C76.3513 30.624 75.3806 29.6533 74.6553 28.416C73.9513 27.1573 73.5993 25.7067 73.5993 24.064C73.5993 22.4213 73.9619 20.9813 74.6873 19.744C75.4126 18.4853 76.3833 17.504 77.5993 16.8C78.8366 16.096 80.2233 15.744 81.7593 15.744C83.2739 15.744 84.6393 16.096 85.8553 16.8C87.0926 17.504 88.0633 18.4853 88.7673 19.744C89.4926 20.9813 89.8553 22.4213 89.8553 24.064C89.8553 25.7067 89.4926 27.1573 88.7673 28.416C88.0633 29.6533 87.0926 30.624 85.8553 31.328C84.6179 32.032 83.2419 32.384 81.7273 32.384ZM81.7273 28.832C82.7939 28.832 83.7219 28.4373 84.5113 27.648C85.3006 26.8373 85.6953 25.6427 85.6953 24.064C85.6953 22.4853 85.3006 21.3013 84.5113 20.512C83.7219 19.7013 82.8046 19.296 81.7593 19.296C80.6713 19.296 79.7326 19.7013 78.9433 20.512C78.1753 21.3013 77.7913 22.4853 77.7913 24.064C77.7913 25.6427 78.1753 26.8373 78.9433 27.648C79.7326 28.4373 80.6606 28.832 81.7273 28.832ZM93.1655 24.448V21.024H106.574V24.448H93.1655ZM110.489 32V9.6H118.137C120.761 9.6 122.915 10.0693 124.601 11.008C126.307 11.9253 127.566 13.2267 128.377 14.912C129.209 16.576 129.625 18.5387 129.625 20.8C129.625 23.0613 129.209 25.0347 128.377 26.72C127.566 28.384 126.307 29.6853 124.601 30.624C122.915 31.5413 120.761 32 118.137 32H110.489ZM114.585 28.48H117.945C119.822 28.48 121.305 28.1813 122.393 27.584C123.481 26.9653 124.259 26.0907 124.729 24.96C125.198 23.808 125.433 22.4213 125.433 20.8C125.433 19.2 125.198 17.824 124.729 16.672C124.259 15.52 123.481 14.6347 122.393 14.016C121.305 13.3973 119.822 13.088 117.945 13.088H114.585V28.48ZM140.759 32.384C139.223 32.384 137.836 32.032 136.599 31.328C135.383 30.624 134.412 29.6533 133.687 28.416C132.983 27.1573 132.631 25.7067 132.631 24.064C132.631 22.4213 132.993 20.9813 133.719 19.744C134.444 18.4853 135.415 17.504 136.631 16.8C137.868 16.096 139.255 15.744 140.791 15.744C142.305 15.744 143.671 16.096 144.887 16.8C146.124 17.504 147.095 18.4853 147.799 19.744C148.524 20.9813 148.887 22.4213 148.887 24.064C148.887 25.7067 148.524 27.1573 147.799 28.416C147.095 29.6533 146.124 30.624 144.887 31.328C143.649 32.032 142.273 32.384 140.759 32.384ZM140.759 28.832C141.825 28.832 142.753 28.4373 143.543 27.648C144.332 26.8373 144.727 25.6427 144.727 24.064C144.727 22.4853 144.332 21.3013 143.543 20.512C142.753 19.7013 141.836 19.296 140.791 19.296C139.703 19.296 138.764 19.7013 137.975 20.512C137.207 21.3013 136.823 22.4853 136.823 24.064C136.823 25.6427 137.207 26.8373 137.975 27.648C138.764 28.4373 139.692 28.832 140.759 28.832Z" fill="#2B1887"/>
</svg>
